<svg width="692" height="400" viewBox="0 0 692 400" fill="none" xmlns="http://www.w3.org/2000/svg">
<path d="M615.035 3.53809H561.789L485.422 174.707V182.066H532.986L563.677 108.572L588.415 49.5301L613.125 108.572L643.838 182.066H691.375V174.707L615.035 3.53809Z" fill="#110E33"/>
<path d="M290.825 219.062V286.816H400.349V219.062H448.452V397.59H400.349V329.837H290.825V397.59H242.723V219.062H290.825Z" fill="#110E33"/>
<path d="M643.434 219.062V313.99C643.434 327.52 639.809 337.785 632.56 344.828C625.31 351.871 614.631 355.381 600.496 355.381H576.423C562.294 355.381 551.615 351.871 544.36 344.828C537.11 337.779 533.486 327.52 533.486 313.99V219.062H485.383V313.183C485.383 330.491 489.078 345.727 496.524 358.892C503.948 372.057 514.55 382.196 528.315 389.315C542.08 396.434 558.119 399.994 576.418 399.994H600.491C618.784 399.994 634.829 396.434 648.594 389.315C662.358 382.196 672.961 372.057 680.385 358.892C687.809 345.727 691.531 330.491 691.531 313.183V219.062H643.429H643.434Z" fill="#110E33"/>
<path d="M210.236 280.706V277.98C210.236 257.304 202.322 243.981 186.489 233.089C170.662 222.198 147.645 216.752 117.438 216.752H113.655C82.3974 216.752 43.2751 219.276 25.9672 229.263C8.66481 239.249 0 253.302 0 271.455V274.181C0 288.332 5.38285 299.545 16.1812 307.787C26.9741 316.03 43.5309 321.699 65.9005 324.79L133.276 332.149C141.995 333.425 148.178 334.924 151.836 336.641C155.493 338.358 157.322 340.762 157.322 343.853V345.766C157.322 350.111 153.866 353.42 146.926 355.698C140.014 357.955 129.82 359.111 116.371 359.111H91.6228C62.9179 359.111 48.5436 352.487 48.5436 339.241V337.06H0.723882V339.241C0.723882 358.838 8.5614 373.851 24.1929 384.279C39.8462 394.702 62.3137 399.929 91.5684 399.929H116.316C145.996 399.929 168.991 395.072 185.319 385.386C201.647 375.672 209.817 362.131 209.817 344.692V341.972C209.817 328.355 204.532 317.567 193.935 309.592C183.338 301.595 167.385 296.078 145.996 292.987L78.6201 285.628C69.705 284.353 63.2934 282.685 59.3366 280.602C55.3797 278.514 53.3986 275.647 53.3986 272.038V270.125C53.3986 260.144 67.849 255.161 96.7281 255.161H115.489C130.691 255.161 142.262 257.102 150.23 261.021C158.198 264.919 162.177 270.588 162.177 278.024V280.744H210.242V280.722L210.236 280.706Z" fill="#110E33"/>
<path d="M49.7193 174.308C33.7884 166.78 21.5423 156.085 12.9101 142.201C4.30519 128.316 0 112.224 0 93.8755V91.9894C0 73.4934 4.30519 57.3033 12.9374 43.419C21.5423 29.5347 33.8156 18.8176 49.7193 11.284C65.6229 3.75044 84.052 0 104.974 0C125.896 0 144.804 3.75044 160.637 11.284C176.469 18.8122 188.694 29.5075 197.299 43.3917C205.904 57.276 210.236 73.4661 210.236 91.9622V93.8755C210.236 112.372 205.931 128.534 197.299 142.321C188.694 156.107 176.469 166.775 160.637 174.308C144.804 181.842 126.255 185.592 104.974 185.592C83.6928 185.592 65.6229 181.842 49.7138 174.308H49.7193ZM162.754 94.7096V91.4497C162.754 76.219 157.877 64.6406 148.107 56.7418C138.359 48.843 123.974 44.8963 104.974 44.8963C85.9733 44.8963 72.0889 48.892 62.2484 56.8672C52.4025 64.8641 47.4823 76.3662 47.4823 91.4279V94.6878C47.4823 109.749 52.31 121.181 61.9872 128.981C71.6643 136.782 85.9787 140.68 104.974 140.68C143.492 140.68 162.754 125.373 162.754 94.7096Z" fill="#110E33"/>
<path d="M383.499 3.53809L345.563 111.004L307.649 3.53809H242.723V182.066H290.259V83.3059L321.658 182.066H369.489L400.866 83.3059V182.066H448.43V3.53809H383.504H383.499Z" fill="#110E33"/>
</svg>
